<?xml version="1.0" standalone="no"?><!DOCTYPE svg PUBLIC "-//W3C//DTD SVG 1.1//EN" "http://www.w3.org/Graphics/SVG/1.1/DTD/svg11.dtd"><svg t="1713600802161" class="icon" viewBox="0 0 1024 1024" version="1.1" xmlns="http://www.w3.org/2000/svg" p-id="1968" xmlns:xlink="http://www.w3.org/1999/xlink" width="200" height="200"><path d="M849.433636 890.022808h48.949329c13.014763 0 18.02487 5.240458 18.284014 18.427983 0.201556 10.077803 0.172762 20.155606 0.316731 30.233409 0 0.633462 0.518287 1.266924 1.324511 3.167309h43.39214c14.598417 0 19.234207 5.18287 19.320588 19.637319s0 28.793723 0 43.190584c0 13.820987-5.18287 19.176619-18.71592 19.205413h-336.886555c-12.985969 0-18.168839-5.384426-18.284014-18.456776q-0.201556-22.66066 0-45.350113c0-12.985969 5.355632-18.111252 18.514363-18.226427h45.666845v-29.484772c0-18.284014 4.059915-22.343929 21.998404-22.372722h45.810813v-22.228754h-211.893006v80.13293c0 21.998404-3.052135 25.108126-24.705014 25.13692H431.032052c-0.345525 3.48404-0.633462 5.758745-0.806224 8.321386-0.777431 11.200758-5.758745 16.354834-16.901916 16.585184s-22.228754 0-32.853637 0c-0.921399 1.180543-1.670036 1.69883-1.727624 2.274704-1.727623 21.652879-3.858359 23.66844-25.338476 23.66844H27.257678c-18.773507 0-22.833422-4.031121-22.833422-22.631866v-193.349848c0-17.276234 4.40544-21.624086 21.65288-21.652879h30.003059v-33.170369c0-13.273906 5.154076-18.48557 18.053664-18.629538 15.491023-0.143969 30.982046-0.201556 46.444275 0 11.517489 0.172762 17.276234 5.758745 17.477789 17.276233 0.316731 11.085583 0 22.171166 0 33.890212h106.536774c0-10.797646-0.143969-21.451323 0-32.105001 0.23035-13.734606 5.442014-18.975063 18.975064-19.090238 14.77118-0.143969 29.542359 0 44.284745 0 13.648225 0 18.600745 5.154076 18.744714 19.032651v32.79605h32.652081c13.734606 0.143969 18.888682 5.18287 18.917476 18.888682v110.711864h24.791395c24.100346 0 25.770382 1.526067 27.670768 25.91435h66.225562v-37.43184-48.632597c0-13.07235 5.125283-18.140045 18.226426-18.71592h223.842401v-184.970875l-1.756417-0.662255c-3.426453 5.758745-7.198431 11.171964-10.27936 17.045884-4.520614 8.638117-11.517489 11.949395-21.105798 11.891807-36.711996-0.259144-73.423993 0-110.13599 0H203.820786c-3.224897 0-6.478588 0.143969-9.703485 0-15.462229-0.806224-21.825642-11.891807-14.396861-25.252095 6.017888-10.653677 12.525269-21.019418 18.802301-31.500332q136.05034-227.326441 271.87033-454.710469c6.680144-11.229552 14.08013-15.951722 27.440417-15.922929q251.081262 0.662256 502.133731 0.287937h4.319058c18.341601 0.201556 24.301902 10.855233 14.886355 26.950925-7.083256 12.093364-14.396861 24.071552-21.595292 36.107328q-65.707275 109.704083-131.155407 219.552136a41.635723 41.635723 0 0 0-5.442014 20.155606c-0.431906 56.176553-0.259144 112.295519-0.23035 168.500865 0 9.761072 1.00778 19.752494-10.567296 24.820189-1.46848 0.662256-2.303498 4.319058-2.303498 6.593762q0 115.549209 0.201556 231.127212a13.014763 13.014763 0 0 0 1.353305 3.023341z m-502.104936 103.25429v-175.987233H35.262333v175.872058z m423.555661-342.818063v238.987899h46.069956v-238.987899z m-30.492553-298.677285h135.330497a9.847453 9.847453 0 0 0 7.313606-2.879372c13.101144-21.307355 25.91435-42.845059 38.957907-64.843464a26.1447 26.1447 0 0 0-4.40544-1.094161h-129.571752a10.740059 10.740059 0 0 0-8.062243 3.541628c-13.129938 20.875449-25.712794 42.15401-39.562575 65.275369z m-118.918074 198.676687c47.10653 0 91.995944 0 136.885357-0.259144 2.591435 0 5.931507-3.455247 7.601543-6.133063 9.12761-14.627211 17.909696-29.513566 26.720575-44.342333 3.340072-5.758745 6.478588-11.517489 10.394534-18.341601-46.271512 0-90.527464 0-134.783416 0.172762a10.653677 10.653677 0 0 0-7.687924 4.059915c-12.870794 20.702687-25.309682 41.837279-39.130669 64.901051zM982.028729 183.309678c-46.761006 0-91.304895-0.143969-135.848783 0.259144-2.879372 0-6.795319 3.397659-8.638117 6.219444-11.200758 17.996077-21.998404 36.280091-32.824844 54.506517a70.055127 70.055127 0 0 0-3.512834 8.11983c45.666844 0 89.922796 0 134.149954-0.201556a10.538503 10.538503 0 0 0 7.716718-4.146296c12.842-20.760274 25.223301-41.750898 38.957906-64.757083z m-300.951989 267.781621h136.136721a8.436561 8.436561 0 0 0 6.19065-3.052134c13.101144-21.307355 25.91435-42.787472 38.842732-64.35397-1.69883-0.835018-2.274704-1.382099-2.879372-1.382099-43.881633 0-87.763267-0.201556-131.644901 0a9.617103 9.617103 0 0 0-7.19843 3.196103c-12.899588 20.933036-25.482445 42.211597-39.4474 65.649688z m63.000665 129.571753h-136.021546a8.436561 8.436561 0 0 0-6.305825 2.879372c-13.07235 21.336149-25.91435 42.873853-38.727557 64.382764 1.69883 1.00778 2.274704 1.641242 2.879372 1.641242 43.910427 0 87.820854 0.172762 131.731281 0a10.59609 10.59609 0 0 0 7.65913-4.290265c12.755619-20.587512 25.13692-41.578136 38.785145-64.440351zM573.848916 283.742183a26.432637 26.432637 0 0 0-3.858358-0.978986c-28.390611 0-56.781221-0.143969-85.143039 0-15.433435 0-33.832624-4.779758-45.494081 1.929179s-17.592965 25.194507-25.914351 38.612382c-5.528395 8.983641-10.682471 18.168839-16.78674 28.563373 45.263732 0 88.339141 0 131.443344-0.143969a9.501928 9.501928 0 0 0 6.939287-3.541627c13.043556-21.105799 25.597619-42.355566 38.813938-64.440352z m172.762337-1.094161h-91.708007c-15.00153 0-32.652082-4.17509-44.255952 2.274704s-16.210866 23.697234-23.812409 36.251297c-5.758745 9.674691-11.517489 19.435763-18.140045 30.550139 45.378907 0 88.454316 0 131.529725-0.143968a9.444341 9.444341 0 0 0 6.968081-3.599216c12.842-20.96183 25.424857-42.182804 39.303432-65.332956zM389.972203 649.940748c39.274638 0 76.245778-1.036574 113.101743 0.4607 17.592965 0.719843 28.217848-3.973534 35.905772-20.155606s18.658332-31.932238 29.052866-49.294853c-45.63805 0-89.058984 0-132.451124 0.172762a9.530722 9.530722 0 0 0-6.593763 4.146296c-12.784413 20.645099-25.194507 41.606929-39.015494 64.670701z m6.075476-69.104934c-45.119763 0-87.849648-0.143969-130.579533 0.287937a14.396861 14.396861 0 0 0-9.732278 6.219444c-8.926054 13.878574-17.276234 28.189055-25.626413 42.38436-3.743184 6.277032-7.284812 12.669238-11.517489 20.155606 44.831826 0 87.561711 0 130.291595-0.172762a10.624884 10.624884 0 0 0 7.947067-3.743184c12.870794-20.904243 25.424857-42.125216 39.217051-65.160195z m231.847055-328.248439c37.806158 0 73.366405-1.382099 108.75389 0.518287 20.875449 1.122955 33.947799-4.232677 42.528329-24.013965 6.737731-15.519817 17.045884-29.513566 26.634193-45.63805-45.177351 0-88.25276 0-131.328169 0.201556a10.567296 10.567296 0 0 0-7.601543 4.232677c-12.784413 20.558718-25.079332 41.549342-38.9867 64.526733z m-112.871393 129.571752h-93.637186c-14.396861 0-31.097221-3.94474-42.182804 2.188323s-15.491023 22.43031-22.747041 34.379705c-6.219444 10.250565-12.29492 20.645099-19.378175 32.536907 45.350113 0 88.396729 0 131.443344-0.201556a10.567296 10.567296 0 0 0 7.630336-4.347852c12.784413-20.789068 25.165714-41.750898 38.957907-64.670702z m170.890744 1.69883c-1.641242-0.921399-2.217117-1.526067-2.879372-1.526067-42.38436 0-84.797513-0.172762-127.210667 0a9.645897 9.645897 0 0 0-7.198431 3.052134c-13.101144 21.249767-25.91435 42.729884-38.727557 64.238796 1.69883 0.950193 2.274704 1.526067 2.879373 1.526067 42.413154 0 84.826307 0.172762 127.210666 0a9.789866 9.789866 0 0 0 7.313606-2.879372c13.07235-21.480117 25.799176-43.017822 38.612382-64.526733zM633.163985 184.864539c-1.670036-0.835018-2.24591-1.382099-2.879372-1.410892-42.38436 0-84.76872-0.172762-127.181873 0a9.905041 9.905041 0 0 0-7.313606 2.879372c-13.101144 21.278561-25.91435 42.787472-38.669969 64.238796 1.69883 1.00778 2.24591 1.641242 2.879372 1.641242 42.413154 0 84.797513 0.172762 127.181873 0a9.703485 9.703485 0 0 0 7.256018-3.138516c12.985969-21.19218 25.712794-42.672297 38.727557-64.210002z m-177.570888 296.575344c-45.666844 0-88.828635 0-131.990425 0.143969a8.263798 8.263798 0 0 0-6.219444 2.879372c-13.07235 21.307355-25.91435 42.816266-38.785144 64.325177 1.842798 0.978987 2.418673 1.554861 2.879372 1.554861 42.470741 0 84.941482 0.172762 127.412223 0a9.444341 9.444341 0 0 0 7.083256-3.311279c12.985969-20.96183 25.568826-42.240391 39.533781-65.5921z m-6.046682 69.104935c45.407701 0 88.137585 0.143969 130.896264-0.287938a14.396861 14.396861 0 0 0 9.530722-6.507381c9.271579-14.396861 17.938489-29.427185 26.778162-44.227158 3.340072-5.585982 6.593762-11.200758 10.653678-18.111252h-130.550739a9.933834 9.933834 0 0 0-7.428781 2.879373c-13.187525 21.307355-25.943144 42.845059-39.965687 66.254356z m188.138185 442.386755H950.182872v-20.155606H637.6846z m191.794986-374.059251v-121.768654l-72.819324 121.826241z m56.406903 302.074944H702.26892v20.155606h183.70395zM107.47699 765.605133h-20.558718v20.011637h20.558718z m188.224565 20.155605v-20.587511h-20.155606v20.587511z m103.657402 181.400453v-20.155605h-20.155606v20.155605zM83.520613 61.512231l59.228687-24.705014c0-4.866139-0.143969-12.352507 0-19.810081 0.287937-10.509709 6.536175-17.276234 15.433435-16.988296 8.465354 0.201556 14.396861 6.708937 14.684799 16.642771 0.23035 7.486368 0 14.972736 0 20.155606l61.474598 25.540032a175.958439 175.958439 0 0 1 13.07235-15.54861c7.313606-7.256018 15.721373-7.169637 21.998404-0.892605s6.334619 14.713592-0.892605 22.027198a173.712529 173.712529 0 0 1-15.577404 13.043556l25.568826 61.503392h18.053664c11.517489 0.172762 18.571951 5.758745 18.773507 14.799973s-6.996875 15.289467-19.205413 15.433435h-17.765727c-8.292592 20.155606-16.153278 39.073082-25.280889 61.10028a202.391077 202.391077 0 0 1 15.750167 13.763399c6.996875 7.284812 6.910493 16.124485 0.201556 21.969611s-14.627211 5.758745-21.220974-0.691049c-5.758745-5.528395-10.509709-11.776633-15.347054-17.276234-11.114377 5.931507-19.925256 11.517489-29.398391 15.491023s-19.090238 6.017888-30.08944 9.444341v21.451323c-0.287937 10.624884-6.305825 17.276234-15.203086 17.276234s-14.713592-6.824112-14.972735-17.47779c-0.143969-7.140843 0-14.396861 0-19.435763l-61.532186-25.396063a169.393471 169.393471 0 0 1-12.093363 14.569624c-7.515162 7.572749-16.613978 7.630337-22.833422 1.036574s-5.758745-14.886355 1.554861-22.084786a160.640179 160.640179 0 0 1 14.799973-12.179744L37.133925 172.742382H27.718378c-19.867669 0-27.152481-3.973534-27.38283-14.828767s7.399987-15.375848 27.872323-15.404642h10.740059c3.167309-10.394534 5.470807-20.529924 9.415547-30.003059s9.559516-18.370395 15.663785-29.801503c-5.096489-4.347852-11.200758-8.89726-16.441215-14.252892-6.996875-7.198431-6.996875-15.951722-0.835018-22.084786s14.627211-5.758745 22.142372 0.863812c2.879372 2.649022 5.758745 5.585982 8.436561 8.350179s5.125283 4.894933 6.190651 5.931507z m162.886089 96.60294A88.540697 88.540697 0 1 0 157.376511 246.195169a88.71346 88.71346 0 0 0 89.030191-88.079998z" p-id="1969" fill="#1daaaa"></path><path d="M188.185795 920.947266c-32.335351-2.130735-34.552467-5.499601-24.388284-34.81161 4.232677-12.208538 8.263798-24.503458 12.75562-36.625616 3.800771-10.221772 11.344727-14.195305 20.155605-11.114377 7.975861 2.879372 11.517489 10.711265 8.436561 20.587512s-6.680144 19.666113-10.653677 31.154808c5.355632 0 9.818659-0.201556 14.252893 0 12.093364 0.691049 18.687126 9.213991 15.059117 20.501131-5.585982 17.448996-11.776633 34.696436-18.024871 51.828701-3.196103 8.839673-10.020215 12.381301-18.888682 9.559516s-11.863014-10.250565-9.386754-18.94627c2.93696-10.624884 6.8817-21.019418 10.682472-32.133795zM86.486366 916.80097c0 8.263798 0.172762 16.527597 0 24.762602-0.259144 10.624884-6.161857 17.276234-14.943942 17.506583s-15.059117-6.536175-15.203086-17.074677c-0.172762-16.873122-0.201556-33.717449 0-50.590571 0.143969-9.847453 6.248238-16.297247 14.742386-16.412422s14.915148 6.277032 15.318261 16.00931c0.345525 8.580529 0.057587 17.189852 0.086381 25.799175z" p-id="1970" fill="#1daaaa"></path></svg>