<?xml version="1.0" standalone="no"?><!DOCTYPE svg PUBLIC "-//W3C//DTD SVG 1.1//EN" "http://www.w3.org/Graphics/SVG/1.1/DTD/svg11.dtd"><svg t="1713600861154" class="icon" viewBox="0 0 1024 1024" version="1.1" xmlns="http://www.w3.org/2000/svg" p-id="3624" xmlns:xlink="http://www.w3.org/1999/xlink" width="200" height="200"><path d="M926.208 818.688c0 28.672-23.04 51.712-51.712 51.712H149.504c-28.672 0-51.712-23.04-51.712-51.712V318.976c0-28.672 23.04-51.712 51.712-51.712h51.712V189.952c0-14.336 11.776-26.112 26.112-26.112h155.136c14.336 0 26.112 11.776 26.112 26.112v77.824h206.848V189.952c0-14.336 11.776-26.112 26.112-26.112h155.136c14.336 0 26.112 11.776 26.112 26.112v77.824h51.712c28.672 0 51.712 23.04 51.712 51.712v499.2zM797.184 506.88h-47.104v-47.104c0-15.36-11.776-28.16-26.624-28.16-14.848 0-26.624 12.288-26.624 28.16V506.88h-47.104c-15.36 0-28.16 11.776-28.16 26.624 0 14.848 12.288 26.624 28.16 26.624h47.104v47.104c0 15.36 11.776 28.16 26.624 28.16 14.848 0 26.624-12.288 26.624-28.16v-47.104h47.104c15.36 0 28.16-11.776 28.16-26.624 0-14.336-12.8-26.624-28.16-26.624z m-420.352 0H229.376c-15.36 0-28.16 11.776-28.16 26.624 0 14.848 12.288 26.624 28.16 26.624h147.456c15.36 0 28.16-11.776 28.16-26.624 0-14.336-12.8-26.624-28.16-26.624z" p-id="3625" fill="#1daaaa"></path></svg>