<?xml version="1.0" standalone="no"?><!DOCTYPE svg PUBLIC "-//W3C//DTD SVG 1.1//EN" "http://www.w3.org/Graphics/SVG/1.1/DTD/svg11.dtd"><svg t="1713599429729" class="icon" viewBox="0 0 1024 1024" version="1.1" xmlns="http://www.w3.org/2000/svg" p-id="16546" xmlns:xlink="http://www.w3.org/1999/xlink" width="200" height="200"><path d="M869.12 272.64h-46.933333v-42.666667a67.84 67.84 0 0 0-69.546667-65.28h-81.066667a67.84 67.84 0 0 0-69.546666 65.28v42.666667H420.266667v-42.666667a67.84 67.84 0 0 0-69.546667-65.28h-81.066667a67.84 67.84 0 0 0-69.546666 65.28v42.666667H154.88A67.84 67.84 0 0 0 85.333333 337.92V793.6a67.84 67.84 0 0 0 69.546667 65.706667h714.24A67.84 67.84 0 0 0 938.666667 793.6V337.92a67.84 67.84 0 0 0-69.546667-65.28z m-217.6-42.666667a19.626667 19.626667 0 0 1 20.053333-16.64h81.066667a19.626667 19.626667 0 0 1 20.053333 18.773334v42.666666h-121.173333z m-401.92 0A19.626667 19.626667 0 0 1 269.653333 213.333333h81.066667a19.626667 19.626667 0 0 1 20.053333 18.773334v42.666666H249.6z m640 563.626667a19.626667 19.626667 0 0 1-20.053333 18.773333H154.88a19.626667 19.626667 0 0 1-20.053333-18.773333V337.92a19.626667 19.626667 0 0 1 20.053333-18.773333h714.24a19.626667 19.626667 0 0 1 20.053333 18.773333z" p-id="16547"></path><path d="M869.12 319.146667H154.88a19.626667 19.626667 0 0 0-20.053333 18.773333V793.6a19.626667 19.626667 0 0 0 20.053333 18.773333h714.24a19.626667 19.626667 0 0 0 20.053333-18.773333V337.92a19.626667 19.626667 0 0 0-20.053333-18.773333z m-415.146667 270.08h-89.6v85.333333a24.746667 24.746667 0 0 1-49.493333 0v-85.333333H225.706667a24.32 24.32 0 0 1-24.746667-23.466667 23.893333 23.893333 0 0 1 24.746667-23.04h89.173333v-85.333333a24.746667 24.746667 0 0 1 49.493333 0v85.333333h89.6a23.893333 23.893333 0 0 1 24.746667 23.04 24.32 24.32 0 0 1-24.746667 23.466667z m344.32 0h-228.266666a24.32 24.32 0 0 1-24.746667-23.466667 23.893333 23.893333 0 0 1 24.746667-23.04h228.266666a23.893333 23.893333 0 0 1 24.746667 23.04 24.32 24.32 0 0 1-24.746667 23.466667zM370.773333 229.973333v42.666667H249.6v-42.666667A19.626667 19.626667 0 0 1 269.653333 213.333333h81.066667a19.626667 19.626667 0 0 1 20.053333 16.64zM772.693333 229.973333v42.666667h-121.173333v-42.666667a19.626667 19.626667 0 0 1 20.053333-16.64h81.066667a19.626667 19.626667 0 0 1 20.053333 16.64z" fill="#FFFFFF" p-id="16548"></path><path d="M823.04 565.76a24.32 24.32 0 0 1-24.746667 23.466667h-228.266666a24.32 24.32 0 0 1-24.746667-23.466667 23.893333 23.893333 0 0 1 24.746667-23.04h228.266666a23.893333 23.893333 0 0 1 24.746667 23.04zM478.72 565.76a24.32 24.32 0 0 1-24.746667 23.466667h-89.6v85.333333a24.746667 24.746667 0 0 1-49.493333 0v-85.333333H225.706667a24.32 24.32 0 0 1-24.746667-23.466667 23.893333 23.893333 0 0 1 24.746667-23.04h89.173333v-85.333333a24.746667 24.746667 0 0 1 49.493333 0v85.333333h89.6a23.893333 23.893333 0 0 1 24.746667 23.04z" p-id="16549"></path></svg>