<?xml version="1.0" standalone="no"?><!DOCTYPE svg PUBLIC "-//W3C//DTD SVG 1.1//EN" "http://www.w3.org/Graphics/SVG/1.1/DTD/svg11.dtd"><svg t="1713598628766" class="icon" viewBox="0 0 1184 1024" version="1.1" xmlns="http://www.w3.org/2000/svg" p-id="6007" xmlns:xlink="http://www.w3.org/1999/xlink" width="231.25" height="200"><path d="M824.874667 347.306667l215.978666 71.808a53.973333 53.973333 0 0 1 36.821334 51.2v499.626666h-323.626667V398.506667a53.973333 53.973333 0 0 1 70.826667-51.2zM269.312 646.741333a54.016 54.016 0 1 0 0 107.989334h215.978667a54.016 54.016 0 1 0 0-107.989334z m0-215.424a54.016 54.016 0 1 0 0 107.989334h215.978667a54.016 54.016 0 1 0 0-107.989334z m0-215.338666a54.016 54.016 0 1 0 0 107.989333h215.978667a54.016 54.016 0 1 0 0-107.989333zM161.322667 0h430.933333a107.989333 107.989333 0 0 1 107.989333 107.989333v861.482667H53.973333V108.373333A107.989333 107.989333 0 0 1 161.962667 0.384z" fill="#1DAAAA" p-id="6008"></path><path d="M53.973333 916.010667h1077.034667a54.016 54.016 0 0 1 0 107.989333H53.973333a54.016 54.016 0 0 1 0-107.989333" fill="#1DAAAA" p-id="6009"></path></svg>