<?xml version="1.0" standalone="no"?><!DOCTYPE svg PUBLIC "-//W3C//DTD SVG 1.1//EN" "http://www.w3.org/Graphics/SVG/1.1/DTD/svg11.dtd"><svg t="1713598937615" class="icon" viewBox="0 0 1024 1024" version="1.1" xmlns="http://www.w3.org/2000/svg" p-id="15506" xmlns:xlink="http://www.w3.org/1999/xlink" width="200" height="200"><path d="M808.884148 584.487822a66.768593 66.768593 0 1 1 128.917808 24.466015l0.326163-0.841956h43.281066c6.045393 0 10.998519-7.759644 14.127408-14.472533-3.413333 0.7168-7.68 1.334993-12.978252 2.025245-0.860919 0.125156-1.710459 0.238933-2.510697 0.345126a33.932326 33.932326 0 0 1-4.460088 0.329955 11.961837 11.961837 0 0 1-13.198223-9.974518 16.645689 16.645689 0 0 1 1.858371-11.267793 38.836148 38.836148 0 0 1 7.60794-9.940385c3.147852-3.090963 8.609185-4.642133 16.25126-4.642134a65.376711 65.376711 0 0 1 16.732918 2.192119 33.799585 33.799585 0 0 0-5.252741-19.342222 12.344889 12.344889 0 0 1-6.712888 1.604266c-0.413393 0-0.872296 0-1.346371-0.034133-1.896296-0.109985-3.925333-0.166874-6.094696-0.21997-11.666015-0.29203-26.168889-0.675081-35.453156-10.012445a177.67917 177.67917 0 0 1-18.348563-21.333333 5.886104 5.886104 0 0 1 0.163082-5.840593c1.274311-2.203496 4.297007-4.839348 11.593955-4.839348a43.235556 43.235556 0 0 1 7.205926 0.671289 166.984059 166.984059 0 0 1 25.7024 6.500504q3.144059 1.099852 5.82163 2.222459a60.730785 60.730785 0 0 0-12.379022-13.251318c-4.259081-3.223704-16.490193-7.585185-36.310282-13.016178-17.52557-4.752119-38.38483-9.648356-55.148089-13.558519l-0.109985-0.037926-0.235141-0.056889-0.724385-0.163081-1.623229-0.379259c-10.319644-2.404504-20.100741-4.676267-26.548148-6.424652-19.64563-5.203437-28.823704-10.884741-53.407289-26.081659l-0.053097-0.037926c-9.170489-5.658548-21.731556-13.4144-38.858903-23.552a268.830341 268.830341 0 0 0-67.398163-30.014578 160.805926 160.805926 0 0 0-39.659141-5.078282h-0.125156c-2.605511-0.056889-5.480296-0.08723-8.791229-0.087229-35.183881 0-129.369126 2.419674-184.016593 7.058015a111.961126 111.961126 0 0 0-61.955792 24.519111 131.982222 131.982222 0 0 0-26.267497 29.123318v0.037926l-0.125155 0.182045-0.420978 0.618192-0.08723 0.125156c-0.621985 0.891259-1.073304 1.566341-1.475318 2.040415-0.986074 1.198459-1.949393 2.328652-3.060622 3.584l-0.075852 0.106192c-0.163081 0.182044-0.326163 0.348919-0.474074 0.530963l-0.1024 0.144119a12.970667 12.970667 0 0 0-0.37926 0.436148 179.867496 179.867496 0 0 0-12.068029 14.908681 22.801067 22.801067 0 0 0-2.23763 3.841897h13.179259c1.72563 0 6.223644 0.891259 8.844326 9.606637a78.927644 78.927644 0 0 0 4.873482 12.014933c0.49683 1.035378 0.838163 1.710459 1.024 2.256592a4.702815 4.702815 0 0 1-0.420978 4.626963c-1.65357 2.381748-4.820385 2.582756-9.102222 2.582756h-18.249956a28.4672 28.4672 0 0 1 0.838163 8.575052 14.487704 14.487704 0 0 1-6.716681 11.885985c-5.859556 3.621926-7.808948 6.371556-11.480178 13.9264-1.934222 3.929126-0.436148 11.647052 1.274311 20.586193v0.182044c1.035378 5.457541 2.495526 12.921363 3.223704 20.912356 0.910222 10.448593 3.185778 13.232356 5.044148 14.487703 2.688948 1.854578 7.296948 1.93043 13.687467 2.021452h1.96077a46.952296 46.952296 0 0 1 16.763259 1.896296 69.161719 69.161719 0 0 0 1.748385 8.844326 41.908148 41.908148 0 0 0-6.644622-2.38554 62.342637 62.342637 0 0 0-11.977007-0.758519l-1.71046-0.037926h-0.037925c-7.497956-0.091022-13.42957-0.163081-18.090667-3.310933-4.881067-3.352652-7.369007-9.356326-8.317156-20.100741-0.690252-7.585185-2.074548-14.791111-3.075792-20.074192l-0.037926-0.201008v-0.037926l-0.022756-0.056889c-2.051793-10.702696-3.675022-19.1488-0.6144-25.338311 4.274252-8.700207 7.08077-12.576237 14.301867-17.036326 5.408237-3.310933 2.4576-12.921363 1.422222-15.796148a45.078756 45.078756 0 0 1-2.112474-17.362489 38.18003 38.18003 0 0 1 6.534637-20.222103 186.132859 186.132859 0 0 1 12.178015-15.090726l0.326163-0.37926c1.786311-2.002489 2.912711-3.333689 3.932918-4.570074 0.216178-0.3072 0.758519-1.073304 1.562549-2.256592a138.258963 138.258963 0 0 1 27.9552-30.958934 119.368059 119.368059 0 0 1 66.051792-26.191644c55.148089-4.642133 149.526756-7.08077 184.653748-7.08077 3.238874 0 6.280533 0.037926 9.030163 0.091022h0.08723a166.919585 166.919585 0 0 1 41.3696 5.332385 276.100741 276.100741 0 0 1 69.347555 30.814815 2282.863881 2282.863881 0 0 1 35.889304 21.727763l2.734459 1.672533 0.37926 0.21997 0.075852 0.075852 0.075851 0.056889c24.534281 15.143822 32.798341 20.241067 51.253097 25.118341 6.557393 1.744593 16.437096 4.073244 28.668207 6.913896 45.689363 10.683733 84.324504 20.165215 94.666904 28.012089 11.423289 8.666074 19.304296 22.493867 24.496355 32.661808a36.534044 36.534044 0 0 1 3.318519 6.625659c0.08723 0.193422 0.185837 0.379259 0.265481 0.553718l0.075852 0.163082 0.273067 0.508207c0.6144 1.202252 1.289481 2.423467 1.873541 3.458845l0.147911 0.254103 0.087229 0.144119c4.369067 7.843081 9.792474 17.620385 6.807704 30.905837a214.281481 214.281481 0 0 1-2.889956 11.320889 65.118815 65.118815 0 0 1-1.835614 5.942992 107.489659 107.489659 0 0 1-4.304593 11.070578c-5.931615 12.796207-13.088237 19.292919-21.238518 19.292919H934.72237q0.758519-1.422222 1.467734-2.943052a66.77997 66.77997 0 0 1-127.286993-28.251022z m24.917333-41.843674a59.164444 59.164444 0 1 0 41.858845-17.343526 58.785185 58.785185 0 0 0-41.858845 17.343526z m102.4 70.022637c0.08723-0.18963 0.178252-0.379259 0.257897-0.576474-0.072059 0.18963-0.163081 0.386844-0.250311 0.576474z m0.458904-1.027792a0.758519 0.758519 0 0 0 0.053096-0.109986 0.606815 0.606815 0 0 1-0.045511 0.109986z m0.932978-2.188326l0.178252-0.451319z m39.549156-38.885452c-5.408237 5.30963-8.169244 10.592711-7.369008 14.123615 0.637156 2.802726 1.6384 4.058074 5.806459 4.058074a27.902104 27.902104 0 0 0 3.436089-0.250311c0.822993-0.109985 1.672533-0.235141 2.533452-0.348919 3.747081-0.474074 7.964444-1.035378 11.430874-1.710459a21.026133 21.026133 0 0 0 6.068148-1.782519 33.109333 33.109333 0 0 0 0.830578-2.120059q0.758519-2.275556 1.467733-4.717985c0.075852-0.284444 0.147911-0.572681 0.216178-0.864711a17.002193 17.002193 0 0 0 0.675082-7.099734 58.89517 58.89517 0 0 0-14.127408-1.763555c-7.59277 0.003793-10.198281 1.748385-10.960592 2.476563z m-38.001778-59.718163a192.018963 192.018963 0 0 0 16.213333 18.492681c7.133867 7.171793 19.421867 7.501748 30.264889 7.789986 2.222459 0.056889 4.297007 0.109985 6.318459 0.21997h0.925393a5.764741 5.764741 0 0 0 2.548622-0.379259 4.892444 4.892444 0 0 0-0.333748-2.01766 94.132148 94.132148 0 0 0-0.758519-1.517037c-0.62957-1.278104-1.327407-2.654815-2.074548-4.149096q-0.898844-1.479111-2.074548-3.208533c-4.023941-5.931615-23.935052-12.428326-40.8576-15.268978a36.283733 36.283733 0 0 0-5.95437-0.580267 11.810133 11.810133 0 0 0-4.209778 0.618193zM366.364444 491.080059h1.00883a81.123556 81.123556 0 0 1-4.630755-11.684978 9.295644 9.295644 0 0 0-2.074549-4.202192h-14.984533a44.282311 44.282311 0 0 0 0.208593 15.906133z m5.80646 93.407763a66.768593 66.768593 0 1 1 129.24397 23.624059h311.751111a63.597985 63.597985 0 0 0 3.413334 7.585186h-318.577778a66.776178 66.776178 0 0 1-125.823052-31.197867z m24.917333-41.843674a59.164444 59.164444 0 1 0 41.843674-17.343526 58.728296 58.728296 0 0 0-41.836089 17.343526z m441.400889 41.843674a37.167407 37.167407 0 1 1 37.148444 37.167408 37.167407 37.167407 0 0 1-37.140859-37.167408z m7.585185 0a29.582222 29.582222 0 1 0 29.563259-29.582222 29.582222 29.582222 0 0 0-29.555674 29.582222z m-444.287052 0a37.167407 37.167407 0 1 1 37.167408 37.167408 37.167407 37.167407 0 0 1-37.159823-37.167408z m7.585185 0a29.582222 29.582222 0 1 0 29.582223-29.582222 29.60877 29.60877 0 0 0-29.567052 29.582222z m185.613275 4.096l-82.037571-97.795792a3.792593 3.792593 0 0 1 2.912711-6.223645h41.320297l-20.836504-80.759466a3.792593 3.792593 0 0 1 1.998696-4.350104 3.9936 3.9936 0 0 1 1.672533-0.379259 3.792593 3.792593 0 0 1 3.007526 1.475318l78.969363 102.437926a3.792593 3.792593 0 0 1-3.034074 6.113659h-36.200296l18.799881 76.136297a3.792593 3.792593 0 0 1-6.58394 3.348859z m-4.69523-17.400415l-16.050252-64.978488a3.792593 3.792593 0 0 1 3.675022-4.69523h33.374815l-62.957037-81.669689 17.445926 67.561244a3.792593 3.792593 0 0 1-3.682607 4.752119h-38.085215z m180.481896-80.941511a36.310281 36.310281 0 0 1-15.689955-8.681244 23.806104 23.806104 0 0 1-6.170549-9.716622h-107.133155a3.792593 3.792593 0 1 1 0-7.585186h106.643911c0-0.060681 0.022756-0.11757 0.030341-0.182044a18.261333 18.261333 0 0 1 10.740622-12.716563c-7.585185-5.370311-15.875793-10.873363-24.295348-16.0768a339.630459 339.630459 0 0 0-35.035971-19.273956c-14.616652-6.754607-22.357333-8.173037-26.267496-8.173037h-1.274311c-6.932859 0-14.52563-0.075852-21.037511-0.125155h-0.060682a2924.93843 2924.93843 0 0 0-30.101807-0.182045c-11.377778 0-21.997037 0.106193-32.453215 0.3072h-0.075852a3.792593 3.792593 0 0 1-3.792592-3.728118 3.705363 3.705363 0 0 1 1.073304-2.696533 3.750874 3.750874 0 0 1 2.654814-1.164326c10.592711-0.201007 21.348504-0.310993 32.889363-0.310993 10.740622 0 20.586193 0.091022 28.505126 0.163082h3.584c6.697719 0.056889 13.016178 0.109985 18.799882 0.109985h1.25914c16.668444 0 48.014222 17.855526 65.232593 28.505126a492.976356 492.976356 0 0 1 29.312948 19.672177 57.325037 57.325037 0 0 1 11.757037-1.137777 79.401719 79.401719 0 0 1 13.592652 1.221214 20.760652 20.760652 0 0 1 17.199407 21.617778 21.947733 21.947733 0 0 1-18.147555 21.894637 29.961481 29.961481 0 0 1-6.068148 0.527171 57.2416 57.2416 0 0 1-15.655822-2.267971z m-7.296948-32.506311a11.58637 11.58637 0 0 0-7.585185 7.774815 12.428326 12.428326 0 0 0 4.551111 10.679941c6.068148 6.045393 17.445926 8.722963 26.043733 8.722963a23.04 23.04 0 0 0 4.47526-0.345126 15.193126 15.193126 0 0 0 8.487822-24.773215 13.274074 13.274074 0 0 0-7.304534-3.841896 71.376593 71.376593 0 0 0-12.246281-1.137778 42.253274 42.253274 0 0 0-16.406756 2.920296zM439.637333 475.591111a16.941511 16.941511 0 0 1-9.519407-4.240118 38.047289 38.047289 0 0 1-7.903763-8.643319c-3.36403-5.169304-4.289422-9.860741-2.654815-13.558518 2.036622-4.626963 10.334815-13.088237 16.926341-19.383941a224.115674 224.115674 0 0 1 21.060267-18.075496 34.512593 34.512593 0 0 1 13.42957-5.753363 152.018489 152.018489 0 0 1 22.64557-2.491734h0.238934a3.792593 3.792593 0 0 1 0.238933 7.585185c-19.721481 1.183289-26.043733 2.529659-32.183941 6.864593a222.01837 222.01837 0 0 0-20.184178 17.381452c-9.860741 9.409422-14.377719 15.014874-15.231051 16.945304-0.420978 0.948148 0.075852 3.2768 2.074548 6.371555a22.061511 22.061511 0 0 0 11.066785 9.428385h40.497304a3.792593 3.792593 0 1 1 0 7.585185z" fill="#1afa29" p-id="15507"></path><path d="M231.348148 644.346311H7.585185a3.792593 3.792593 0 0 1-3.792592-3.792592 3.792593 3.792593 0 0 1 3.792592-3.792593h223.762963a3.792593 3.792593 0 0 1 3.792593 3.792593 3.792593 3.792593 0 0 1-3.792593 3.792592z" fill="#888888" p-id="15508"></path><path d="M188.078459 644.346311H49.23923a3.792593 3.792593 0 0 1-3.792593-3.792592V376.5248a3.792593 3.792593 0 0 1 3.792593-3.792593h138.839229a3.792593 3.792593 0 0 1 3.792593 3.792593v264.028919a3.792593 3.792593 0 0 1-3.792593 3.792592z m-135.046637-7.585185h131.254045v-256.443733H53.031822z" fill="#888888" p-id="15509"></path><path d="M115.18483 601.952711a42.454281 42.454281 0 0 1-4.422163-0.591644l1.179496-5.578904a36.359585 36.359585 0 0 0 6.724267 0.625778h0.060681l-3.542281 5.54477z m9.162903-0.235141l4.266667-6.68634a36.765393 36.765393 0 0 0 18.962963-12.894815 36.02963 36.02963 0 0 0 7.505541-22.110815 36.496119 36.496119 0 0 0-0.451319-5.71923l4.281837-6.705303a42.241896 42.241896 0 0 1 1.850785 12.42074 42.097778 42.097778 0 0 1-36.408888 41.718519z m-20.897185-2.434844a42.477037 42.477037 0 0 1-22.675911-20.859259h6.489126a36.754015 36.754015 0 0 0 17.377659 15.17037l-1.190874 5.688889z m-24.302933-24.674607a42.124326 42.124326 0 0 1 36.124444-56.570312l-4.027733 6.310874a36.43923 36.43923 0 0 0-28.065185 43.9296l-4.042904 6.33363z m77.770904-32.237038h-6.394312a36.867793 36.867793 0 0 0-16.220918-15.27277l1.198459-5.726815a42.2912 42.2912 0 0 1 21.409185 20.995793z m-29.828741-17.825185a35.84 35.84 0 0 0-6.398104-0.925392l3.436089-5.393067c1.414637 0.185837 2.806519 0.436148 4.133926 0.758519l-1.164326 5.571318z" fill="#888888" p-id="15510"></path><path d="M121.764978 549.971437l8.741926-41.718518-39.958756 62.577777h26.620208l-8.741926 41.718519 39.95117-62.577778h-26.60883z" fill="#1afa29" p-id="15511"></path><path d="M83.710104 402.526815h69.893689a11.377778 11.377778 0 0 1 11.377777 11.377778v43.887881a11.377778 11.377778 0 0 1-11.377777 11.377778H83.710104a11.377778 11.377778 0 0 1-11.377778-11.377778v-43.887881a11.377778 11.377778 0 0 1 11.377778-11.377778z m69.893689 59.058252a3.792593 3.792593 0 0 0 3.792592-3.792593v-43.887881a3.792593 3.792593 0 0 0-3.792592-3.792593H83.710104a3.792593 3.792593 0 0 0-3.792593 3.792593v43.887881a3.792593 3.792593 0 0 0 3.792593 3.792593z" fill="#888888" p-id="15512"></path><path d="M143.310696 451.917748v-15.17037a3.792593 3.792593 0 0 1 7.585185 0v15.17037a3.792593 3.792593 0 0 1-7.585185 0z m-11.377777 0v-15.17037a3.792593 3.792593 0 1 1 7.585185 0v15.17037a3.792593 3.792593 0 1 1-7.585185 0z m-11.377778 0v-15.17037a3.792593 3.792593 0 0 1 7.585185 0v15.17037a3.792593 3.792593 0 0 1-7.585185 0z m-11.377778 0v-15.17037a3.792593 3.792593 0 1 1 7.585185 0v15.17037a3.792593 3.792593 0 1 1-7.585185 0z m-11.377778 0v-15.17037a3.792593 3.792593 0 1 1 7.585185 0v15.17037a3.792593 3.792593 0 1 1-7.585185 0z m-11.377778 0v-15.17037a3.792593 3.792593 0 1 1 7.585186 0v15.17037a3.792593 3.792593 0 1 1-7.585186 0z" fill="#1afa29" p-id="15513"></path><path d="M292.742637 565.054578h-11.286756a23.84403 23.84403 0 0 1-24.219496-23.358578v-0.690252a23.84403 23.84403 0 0 1 24.219496-23.358578h11.904949a7.403141 7.403141 0 0 1 7.49037 7.224889v32.4608a7.903763 7.903763 0 0 1-8.108563 7.721719z" fill="#1afa29" p-id="15514"></path><path d="M292.742637 568.84717h-11.286756a27.621452 27.621452 0 0 1-28.012088-27.15117v-0.690252a27.621452 27.621452 0 0 1 28.012088-27.15117h11.904949a11.165393 11.165393 0 0 1 11.282963 11.017481v32.4608a11.722904 11.722904 0 0 1-11.901156 11.514311z m-11.286756-47.407407a20.032474 20.032474 0 0 0-20.426903 19.565985v0.694045a20.032474 20.032474 0 0 0 20.426903 19.562192h11.286756a4.137719 4.137719 0 0 0 4.31597-3.929126v-32.4608a3.621926 3.621926 0 0 0-3.697777-3.432296z" fill="#1afa29" p-id="15515"></path><path d="M282.779496 545.143467H188.749748a3.792593 3.792593 0 0 1-3.792592-3.792593 3.792593 3.792593 0 0 1 3.792592-3.792593h94.029748a3.792593 3.792593 0 0 1 3.792593 3.792593 3.792593 3.792593 0 0 1-3.792593 3.792593z" fill="#1afa29" p-id="15516"></path><path d="M293.80077 529.335941a3.792593 3.792593 0 0 1 3.792593-3.792593h30.473481a3.792593 3.792593 0 0 1 3.792593 3.792593 3.792593 3.792593 0 0 1-3.792593 3.792592h-30.473481a3.792593 3.792593 0 0 1-3.792593-3.792592z" fill="#1afa29" p-id="15517"></path><path d="M293.80077 553.365807a3.792593 3.792593 0 0 1 3.792593-3.792592h30.473481a3.792593 3.792593 0 0 1 3.792593 3.792592 3.792593 3.792593 0 0 1-3.792593 3.792593h-30.473481a3.792593 3.792593 0 0 1-3.792593-3.792593z" fill="#1afa29" p-id="15518"></path></svg>