<?xml version="1.0" standalone="no"?><!DOCTYPE svg PUBLIC "-//W3C//DTD SVG 1.1//EN" "http://www.w3.org/Graphics/SVG/1.1/DTD/svg11.dtd"><svg t="1713600727771" class="icon" viewBox="0 0 1137 1024" version="1.1" xmlns="http://www.w3.org/2000/svg" p-id="1344" xmlns:xlink="http://www.w3.org/1999/xlink" width="222.0703125" height="200"><path d="M864.426667 0c30.606222 0 59.278222 12.117333 80.497777 33.336889 21.162667 21.162667 33.28 49.891556 33.28 80.440889v910.222222H202.353778V113.777778c0-30.549333 12.117333-59.278222 33.336889-80.440889A113.493333 113.493333 0 0 1 316.131556 0h548.295111z m0 56.888889H316.131556c-15.36 0-29.582222 6.030222-40.220445 16.668444A56.604444 56.604444 0 0 0 259.242667 113.777778v853.333333h662.072889V113.777778a56.547556 56.547556 0 0 0-11.719112-34.645334l-4.892444-5.575111A56.604444 56.604444 0 0 0 864.426667 56.888889z" p-id="1345" fill="#1daaaa"></path><path d="M849.408 175.047111v222.72H331.093333V175.047111h518.314667z m-56.888889 56.888889H387.982222v108.942222h404.48V231.936zM727.608889 630.613333h-55.694222c-11.946667 0-45.738667 5.859556-57.173334-1.251555-2.275556-8.135111 5.12-22.869333 7.111111-29.980445 5.859556-20.593778 11.434667-40.96 17.294223-61.781333l24.917333-89.770667c3.299556-11.662222-11.946667-16.782222-18.318222-7.850666l-201.386667 276.309333c-4.551111 6.371556 1.820444 15.303111 8.931556 15.303111h81.635555c5.575111 0 27.192889-3.584 30.72 1.706667 3.299556 4.380444-3.015111 17.863111-4.323555 22.698666-15.246222 52.906667-29.980444 105.756444-44.714667 158.606223-3.299556 11.719111 11.946667 16.782222 18.318222 7.907555l201.102222-276.366222c4.778667-6.599111-1.308444-15.530667-8.419555-15.530667zM1102.279111 967.111111a28.444444 28.444444 0 1 1 0 56.888889h-1024a28.444444 28.444444 0 1 1 0-56.888889h1024z" p-id="1346" fill="#1daaaa"></path></svg>