<?xml version="1.0" standalone="no"?><!DOCTYPE svg PUBLIC "-//W3C//DTD SVG 1.1//EN" "http://www.w3.org/Graphics/SVG/1.1/DTD/svg11.dtd"><svg t="1713601093448" class="icon" viewBox="0 0 1024 1024" version="1.1" xmlns="http://www.w3.org/2000/svg" p-id="9988" xmlns:xlink="http://www.w3.org/1999/xlink" width="200" height="200"><path d="M595 190.25c1.33 0 2.67 0.81 4.53 0.81v-31.23c0-52.85-43-95.83-95.56-95.83H305.05a95.7 95.7 0 0 0-95.57 95.83v31c1.07 0 1.87-0.54 2.94-0.54zM280.28 517.37h230.38c80.6 0 145.74-65.4 145.74-146s-65.14-146-145.74-146H280.28a146 146 0 0 0 0 292z m171.78-243a24.71 24.71 0 0 1 2.67 2.4c-13.62 26.44-27.23 52.59-41.91 81.15 13.34 4.27 26.16 8.28 42.17 13.34-41.64 31-80.88 60.07-120.39 89.17a17.58 17.58 0 0 1-2.4-2.13c13.61-26.43 27.23-52.85 41.91-81.15-13.62-4.27-26.16-8-42.18-13.09 41.38-30.94 80.89-60.32 120.13-89.68zM865.5 263.21H857v-50.44h-12.32v50.44h-59.26v-50.44h-12.29v50.44h-1.86A31.29 31.29 0 0 0 740 294.44v33.37c0 12 7.74 20.56 17.89 25.88h119.62c10.68-4.78 19.49-13.34 19.49-25.88v-33.37a31.51 31.51 0 0 0-31.5-31.23z" p-id="9989" fill="#1daaaa"></path><path d="M771.35 382.76a16.45 16.45 0 0 0 16.54 16.55h15.73v307.82H599.39V551.78c-1.61 0-2.94 0.8-4.54 0.8H212.32c-1.07 0-1.61-0.53-2.67-0.53v218.08a95.81 95.81 0 0 0 38.26 76.7h-64.32a56.59 56.59 0 1 0 0 113.17H607.5a56.59 56.59 0 0 0 0-113.17H561a95.84 95.84 0 0 0 38.39-76.7v-39h228.26V399.31h24.85a16.46 16.46 0 0 0 16.55-16.55v-17.09h-97.7z" p-id="9990" fill="#1daaaa"></path></svg>