<?xml version="1.0" standalone="no"?><!DOCTYPE svg PUBLIC "-//W3C//DTD SVG 1.1//EN" "http://www.w3.org/Graphics/SVG/1.1/DTD/svg11.dtd"><svg t="1713601058883" class="icon" viewBox="0 0 1024 1024" version="1.1" xmlns="http://www.w3.org/2000/svg" p-id="8672" xmlns:xlink="http://www.w3.org/1999/xlink" width="200" height="200"><path d="M959.968 64H64l79.2-64h737.536L960 64zM64 64h896v64H64V64z m96 896h704v64H160v-64zM128 96v512h768V96H128z m32 544v288h704v-288H160z m576 224h-160v-160h159.84L736 864z m-128-128h96v32h-96v-32z m0 64h96v32h-96v-32z m-160 64H288v-160h159.84L448 864z m-128-128h96v32h-96v-32z m96 64v32h-96v-32h96z m288-576v42.368h-118.4v203.264h116.96V512h-162.272V266.368h-56.576V512h-162.24v-42.368h116.896V266.368H320V224h384z" fill="#1daaaa" p-id="8673"></path></svg>