<?xml version="1.0" standalone="no"?><!DOCTYPE svg PUBLIC "-//W3C//DTD SVG 1.1//EN" "http://www.w3.org/Graphics/SVG/1.1/DTD/svg11.dtd"><svg t="1709865934816" class="icon" viewBox="0 0 1024 1024" version="1.1" xmlns="http://www.w3.org/2000/svg" p-id="22963" xmlns:xlink="http://www.w3.org/1999/xlink" width="200" height="200"><path d="M959.968 64h-896l79.232-64h737.536z m-896 0h896v64h-896z m96 896h704v64h-704z m-32-864v512h768V96z m32 544v288h704v-288z m576 224h-160v-160h160z m-128-128h96v32h-96z m0 64h96v32h-96z m-160 64h-160v-160h160z m-128-128h96v32h-96z m96 64v32h-96v-32z m288-576v42.368h-118.4v203.232h116.928V512h-162.272V266.368h-56.576V512h-162.24v-42.4h116.896V266.368h-118.4V224z" fill="#2c2c2c" p-id="22964"></path></svg>