<?xml version="1.0" standalone="no"?><!DOCTYPE svg PUBLIC "-//W3C//DTD SVG 1.1//EN" "http://www.w3.org/Graphics/SVG/1.1/DTD/svg11.dtd"><svg t="1713600975249" class="icon" viewBox="0 0 1024 1024" version="1.1" xmlns="http://www.w3.org/2000/svg" p-id="6488" xmlns:xlink="http://www.w3.org/1999/xlink" width="200" height="200"><path d="M697.344 241.57v-12.616h-4.164a27.343 27.343 0 0 1 0-54.654h4.195v-6.491h-4.195a27.343 27.343 0 0 1 0-54.655h4.195v-6.49h-4.195a27.343 27.343 0 0 1 0-54.655h4.195a10.625 10.625 0 0 1 1.96-6.124l29.057-40.876a10.655 10.655 0 0 1 17.452 0l28.476 40.876a10.625 10.625 0 0 1 1.898 5.94h2.327a27.343 27.343 0 0 1 0 54.654h-2.327v6.767h2.327a27.343 27.343 0 0 1 0 54.655h-2.327v6.49h2.327a27.343 27.343 0 1 1 0 54.655h-2.327v12.615z m57.471-6.125v-6.49h-36.16v6.49z m-61.635-39.804a6.124 6.124 0 1 0 0 12.064h85.273a6.124 6.124 0 1 0 0-12.064z m61.635-21.433v-6.491h-36.16v6.491z m-61.635-39.804a6.124 6.124 0 1 0 0 12.063h85.243a6.124 6.124 0 1 0 0-12.063z m61.635-21.433v-6.492h-36.16v6.767zM693.18 73.166a6.124 6.124 0 1 0 0 12.064h85.273a6.124 6.124 0 0 0 0-12.064z m59.217-21.433l-15.493-22.26-15.739 22.536z m-279.06 189.622V228.74h-4.194a27.343 27.343 0 0 1 0-54.654h4.195v-6.492h-4.195a27.343 27.343 0 0 1 0-54.654h4.195v-6.491h-4.195a27.343 27.343 0 0 1 0-54.655h4.195a10.594 10.594 0 0 1 1.96-6.123l28.964-40.938a10.655 10.655 0 0 1 17.423 0l28.475 41.152a10.594 10.594 0 0 1 1.898 5.94h2.327a27.343 27.343 0 0 1 0 54.654h-2.327v6.767h2.327a27.343 27.343 0 0 1 0 54.655h-2.327v6.49h2.327a27.343 27.343 0 0 1 0 54.655h-2.327v12.615z m57.472-6.124v-6.491h-36.191v6.491z m-61.636-39.804a6.124 6.124 0 1 0 0 12.064h85.274a6.124 6.124 0 1 0 0-12.064z m61.636-21.433v-6.491h-36.191v6.49z m-61.636-39.805a6.124 6.124 0 1 0 0 12.064h85.274a6.124 6.124 0 1 0 0-12.064z m61.636-21.433v-6.49h-36.191v6.98z m-61.636-39.804a6.124 6.124 0 1 0 0 12.064h85.274a6.124 6.124 0 0 0 0-12.064z m59.217-21.433l-15.493-22.26-15.769 22.75zM249.331 241.14v-12.615h-4.195a27.343 27.343 0 0 1 0-54.655h4.195v-6.491h-4.195a27.343 27.343 0 0 1 0-54.654h4.195v-6.492h-4.195a27.343 27.343 0 0 1 0-54.654h4.195a10.594 10.594 0 0 1 1.96-6.124L280.256 4.52a10.655 10.655 0 0 1 17.422 0l28.445 41.366a10.625 10.625 0 0 1 1.898 5.94h2.327a27.343 27.343 0 0 1 0 54.654h-2.327v6.767h2.327a27.343 27.343 0 0 1 0 54.655h-2.327v6.49h2.327a27.343 27.343 0 0 1 0 54.655h-2.327v12.615z m57.471-6.124v-6.491H270.58v6.49z m-61.635-39.805a6.124 6.124 0 1 0 0 12.064h85.181a6.124 6.124 0 1 0 0-12.064z m61.635-21.433v-6.49H270.58v6.49z m-61.635-39.804a6.124 6.124 0 1 0 0 12.064h85.181a6.124 6.124 0 1 0 0-12.064z m61.635-21.433v-6.491H270.58v7.195z m-61.635-39.804a6.124 6.124 0 1 0 0 12.063h85.181a6.124 6.124 0 0 0 0-12.063z m59.216-21.434l-15.493-22.26-15.799 22.965z m596.484 856.346H122.692a52.052 52.052 0 0 1-51.838-51.838V287.773a52.052 52.052 0 0 1 51.838-51.838h778.175a52.052 52.052 0 0 1 51.807 51.838v568.069a52.052 52.052 0 0 1-51.807 51.807zM122.692 266.707a21.25 21.25 0 0 0-21.219 21.219v567.916a21.25 21.25 0 0 0 21.219 21.219h778.175a21.219 21.219 0 0 0 21.219-21.219v-568.07a21.219 21.219 0 0 0-21.22-21.218zM86.164 845.401H57.566a52.052 52.052 0 0 1-52.052-52.052V363.646a52.052 52.052 0 0 1 52.052-52.052h28.598l15.31 15.31v503.188zM57.566 342.244a21.433 21.433 0 0 0-21.433 21.433V793.38a21.433 21.433 0 0 0 21.433 21.433h13.288v-472.57zM965.932 845.4h-28.537l-15.31-15.31V326.935l15.31-15.31h28.537a52.052 52.052 0 0 1 52.051 52.053V793.32a52.052 52.052 0 0 1-52.051 52.082z m-13.228-30.619h13.228a21.433 21.433 0 0 0 21.433-21.433V363.707a21.433 21.433 0 0 0-21.433-21.433h-13.228zM809.837 1024H213.721a52.205 52.205 0 0 1-52.051-52.052v-77.924l15.309-15.31h669.693l15.309 15.31v77.985A52.205 52.205 0 0 1 809.837 1024z m-617.64-114.667v62.676a21.433 21.433 0 0 0 21.433 21.434h596.207a21.433 21.433 0 0 0 21.433-21.434v-62.676z m282.365-424.498l6.124-4.348V308.685a10.655 10.655 0 0 0-10.655-10.655h-12.248a10.655 10.655 0 0 0-10.655 10.655v195.593l6.124-4.348m-74.465 198.715l6.124-8.879v-113.29a21.433 21.433 0 0 1 0-26.974V308.685a10.655 10.655 0 0 0-10.656-10.655h-12.247a10.655 10.655 0 0 0-10.655 10.655V738.42l6.123-8.88M182.827 298.03H170.58a10.655 10.655 0 0 0-10.656 10.655v521.743a10.655 10.655 0 0 0 10.656 10.656h12.247a10.655 10.655 0 0 0 10.655-10.656V308.685a10.655 10.655 0 0 0-10.655-10.655z m483.194 51.133l6.124-4.347v-36.13a10.655 10.655 0 0 0-10.655-10.656h-12.248a10.655 10.655 0 0 0-10.655 10.655v59.921l6.124-4.348M278.57 298.03h-12.247a10.655 10.655 0 0 0-10.655 10.655v521.743a10.655 10.655 0 0 0 10.655 10.656h12.248a10.655 10.655 0 0 0 10.655-10.656V308.685a10.655 10.655 0 0 0-10.655-10.655z m291.705 118.984l6.124-4.347V308.563a10.655 10.655 0 0 0-10.655-10.655h-12.248a10.655 10.655 0 0 0-10.655 10.655v127.741l6.124-4.348M852.979 298.03h-12.247a10.655 10.655 0 0 0-10.656 10.655v521.743a10.655 10.655 0 0 0 10.656 10.656h12.247a10.655 10.655 0 0 0 10.655-10.656V308.685a10.655 10.655 0 0 0-10.655-10.655zM576.4 560.218v-0.673l-0.367 0.55 0.367 0.123zM357.507 807.954l-6.124 4.226v18.37a10.655 10.655 0 0 0 10.656 10.656h12.247a10.655 10.655 0 0 0 10.655-10.655V789l-6.123 4.226m170.178-117.699l-6.123 4.226v150.644a10.655 10.655 0 0 0 10.655 10.655h12.247a10.655 10.655 0 0 0 10.656-10.655V656.575l-6.124 4.226m186.927-362.77h-12.247a10.655 10.655 0 0 0-10.655 10.654v521.743a10.655 10.655 0 0 0 10.655 10.656h12.247a10.655 10.655 0 0 0 10.656-10.656V308.685a10.655 10.655 0 0 0-10.656-10.655zM644.711 459.237l-6.124 8.971v117.208a21.433 21.433 0 0 1 0 26.853v218.067a10.655 10.655 0 0 0 10.655 10.655h12.248a10.655 10.655 0 0 0 10.655-10.655v-411.27l-6.124 8.971m-212.77 313.72l-6.123 4.225v84.446a10.655 10.655 0 0 0 10.655 10.656h12.248a10.655 10.655 0 0 0 10.655-10.656V722.804l-6.124 4.225M348.72 786.858a8.726 8.726 0 0 1-4.808-12.247l124.496-180.65-61.544-21.434a8.726 8.726 0 0 1-1.776-15.646l262.066-185.886a8.726 8.726 0 0 1 12.248 11.543L553.467 567.322l62.89 21.923a8.726 8.726 0 0 1 1.685 15.707L356.068 786.123a8.726 8.726 0 0 1-7.349 0.735z" fill="#1daaaa" p-id="6489"></path></svg>