<?xml version="1.0" standalone="no"?><!DOCTYPE svg PUBLIC "-//W3C//DTD SVG 1.1//EN" "http://www.w3.org/Graphics/SVG/1.1/DTD/svg11.dtd"><svg t="1709865719871" class="icon" viewBox="0 0 1024 1024" version="1.1" xmlns="http://www.w3.org/2000/svg" p-id="8486" xmlns:xlink="http://www.w3.org/1999/xlink" width="200" height="200"><path d="M864 64h-704c-35.264 0-64 28.736-64 64v768c0 35.328 28.736 64 64 64h704c35.328 0 64-28.672 64-64V128c0-35.264-28.672-64-64-64zM256 128h512v224H256V128zM160 896V128H192v288h640V128h32l0.064 768H160z" fill="#000000" p-id="8487"></path><path d="M328 192h64v96h-64V192z m160 0h64v96h-64V192z m160 0h64v96h-64V192z m-42.88 288H470.08L352 647.488l160 40.576L429.12 857.6 672 630.208 512 606.08 605.12 480z" fill="#000000" p-id="8488"></path></svg>